<?xml version="1.0" encoding="utf-8"?>
<!-- Generator: Adobe Illustrator 25.1.0, SVG Export Plug-In . SVG Version: 6.00 Build 0)  -->
<svg version="1.1" id="Layer_1" xmlns="http://www.w3.org/2000/svg" xmlns:xlink="http://www.w3.org/1999/xlink" x="0px" y="0px"
	 viewBox="0 0 32 32" style="enable-background:new 0 0 32 32;" xml:space="preserve">
<style type="text/css">
	.st0{fill:#FF4200;stroke:#FF4200;stroke-width:2;stroke-linejoin:round;stroke-miterlimit:10;}
	.st1{stroke:#000000;stroke-width:2;stroke-linecap:round;stroke-linejoin:round;}
	.st2{fill:none;stroke:#000000;stroke-width:2;stroke-linecap:round;stroke-linejoin:round;}
</style>
<rect x="2.7" y="1.9" class="st0" width="28" height="28"/>
<g>
	<path class="st1" d="M20.8,26.3v-2c0-2.2-1.8-4-4-4h-7c-2.2,0-4,1.8-4,4v2H20.8z"/>
	<path class="st2" d="M13.3,8.3c2.2,0,4,1.8,4,4s-1.8,4-4,4c-2,0-3.2-1.6-3.2-1.6c-0.3-0.4-0.8-1.2-0.8-2.4
		C9.3,10.5,10.9,8.3,13.3,8.3z"/>
	<path d="M24.4,14l-2.9-2.9l0.7,4.1l-2.9,2.9l4.1-0.7l2.9,2.9l-0.7-4.1l2.9-2.9L24.4,14z M23.9,16.3c-0.3,0-0.6-0.3-0.6-0.6
		c0-0.3,0.3-0.6,0.6-0.6s0.6,0.3,0.6,0.6C24.5,16.1,24.2,16.3,23.9,16.3z"/>
	<path id="path3794_1_" d="M9.9,9C9.1,6.7,8.5,5.2,7.8,5.6C7.4,5.8,6.6,5.8,6.5,6.1C6.5,7.4,9.4,9,8.9,9.2c-1.8,0.7-2.5-4-3-2
		C5.3,9.7,3,8.6,9.2,10.4"/>
	<path d="M9.9,11.8c2.6,0.2,6.9-1.5,6.9-1.5l-3.1-2.4L9.9,9.9"/>
	<path class="st2" d="M10.4,14.6c2.3-0.8,6.3-1.3,6.3-1.3l-1.5,1.3H10.4z"/>
</g>
</svg>
